<?xml version="1.0" encoding="UTF-8"?>
<svg version="1.1" xmlns="http://www.w3.org/2000/svg" width="1181" height="1181">
<path d="M0 0 C1.97477732 0.4969466 3.95409689 0.97618285 5.9375 1.4375 C10.54435248 2.56651927 14.67123635 4.03980514 19 6 C21.98300085 7.05367288 24.9867564 8.03658198 28 9 C28 9.66 28 10.32 28 11 C28.70125 11.103125 29.4025 11.20625 30.125 11.3125 C36.72131002 12.88987848 42.50528978 17.00684556 48.25 20.5 C49.47203125 21.22896484 49.47203125 21.22896484 50.71875 21.97265625 C51.49734375 22.44574219 52.2759375 22.91882813 53.078125 23.40625 C54.13628418 24.04530273 54.13628418 24.04530273 55.21582031 24.69726562 C57 26 57 26 59 29 C59.61875 29.309375 60.2375 29.61875 60.875 29.9375 C63.49341948 31.24670974 64.95044194 32.89350977 67 35 C69.08531913 36.7874164 71.18270547 38.55850604 73.29296875 40.31640625 C75 42 75 42 76 45 C77.32100416 45.69077509 78.65597313 46.35516358 80 47 C81.5625 48.55078125 81.5625 48.55078125 83 50.3125 C83.515625 50.93898438 84.03125 51.56546875 84.5625 52.2109375 C85.036875 52.80132812 85.51125 53.39171875 86 54 C86.66 54.804375 87.32 55.60875 88 56.4375 C88.66 57.283125 89.32 58.12875 90 59 C90.65935547 59.84111328 90.65935547 59.84111328 91.33203125 60.69921875 C95.59188433 66.24039967 99.29881274 72.07635041 103 78 C103.64775391 78.98419922 103.64775391 78.98419922 104.30859375 79.98828125 C107.10831178 84.27506263 109.49358401 88.75091752 111.8125 93.3125 C112.12703125 93.92391846 112.4415625 94.53533691 112.765625 95.1652832 C114.17328439 97.98490316 115 99.80330235 115 103 C115.66 103 116.32 103 117 103 C117.32613281 103.9178125 117.65226562 104.835625 117.98828125 105.78125 C118.42527344 107.0084375 118.86226562 108.235625 119.3125 109.5 C119.54324219 110.14855957 119.77398438 110.79711914 120.01171875 111.46533203 C121.1365213 114.61778076 122.28007294 117.75819213 123.5 120.875 C127.76019038 132.30005603 130.65809752 143.4668471 132.421875 155.52734375 C132.62381776 158.8176133 132.62381776 158.8176133 134 160 C135.40025097 166.83593888 135.14388967 173.76147458 135.1328125 180.7109375 C135.13348749 182.04700742 135.13445914 183.38307722 135.13571167 184.71914673 C135.13718048 187.51134416 135.13506112 190.30350945 135.13037109 193.09570312 C135.12468542 196.65158345 135.12795064 200.20738808 135.13394356 203.76326561 C135.13758078 206.52070674 135.13639596 209.27813035 135.13381577 212.03557205 C135.132836 213.97687073 135.13584229 215.91817011 135.13894653 217.85946655 C135.09145575 235.90854425 135.09145575 235.90854425 133 238 C132.64358838 239.71541812 132.34110356 241.44211529 132.0625 243.171875 C131.80339844 244.75742187 131.80339844 244.75742187 131.5390625 246.375 C131.36117188 247.48875 131.18328125 248.6025 131 249.75 C130.64651239 251.93240176 130.29236869 254.11469738 129.9375 256.296875 C129.78152344 257.26979492 129.62554688 258.24271484 129.46484375 259.24511719 C129.02661236 261.84228265 128.5311946 264.42041561 128 267 C127.34 267 126.68 267 126 267 C125.95875 268.27875 125.9175 269.5575 125.875 270.875 C125.28556659 277.03325948 123.30475438 282.60364306 121.25927734 288.40185547 C119.55753796 293.22820385 118.16970103 298.01605648 117 303 C116.34 303 115.68 303 115 303 C114.92523437 303.54785156 114.85046875 304.09570312 114.7734375 304.66015625 C113.59163948 311.78570312 111.11875223 318.06261807 108.33984375 324.6796875 C107.3412269 327.15439399 106.52922172 329.39962659 106 332 C105.34 332 104.68 332 104 332 C103.82984375 332.76183594 103.6596875 333.52367187 103.484375 334.30859375 C101.92623875 340.94724873 99.96729444 346.8766786 97 353 C94.09353469 359.26284785 91.3306407 365.4987391 89 372 C88.34 372 87.68 372 87 372 C86.85304688 372.8353125 86.85304688 372.8353125 86.703125 373.6875 C85.77058859 378.44665133 84.4872202 382.43310824 82.20703125 386.703125 C78.25930843 394.21529658 74.82369279 401.9995371 72 410 C71.34 410 70.68 410 70 410 C69.74476563 410.94359375 69.74476563 410.94359375 69.484375 411.90625 C68.04875655 416.97673218 66.38348844 421.58118849 63.91796875 426.23828125 C62.77568293 428.43049788 61.86739759 430.68693977 61 433 C60.34 433 59.68 433 59 433 C58.91878906 433.63292969 58.83757812 434.26585937 58.75390625 434.91796875 C57.68298789 439.2959718 55.80650375 443.22264205 53.9375 447.3125 C53.56044922 448.14845703 53.18339844 448.98441406 52.79492188 449.84570312 C51.86788193 451.89927262 50.93613122 453.95056287 50 456 C49.34 456 48.68 456 48 456 C47.69255859 457.04800781 47.69255859 457.04800781 47.37890625 458.1171875 C47.10949219 459.02726562 46.84007812 459.93734375 46.5625 460.875 C46.29566406 461.77992188 46.02882813 462.68484375 45.75390625 463.6171875 C45 466 45 466 44 468 C43.34 468 42.68 468 42 468 C41.87818359 468.96486328 41.87818359 468.96486328 41.75390625 469.94921875 C40.70711027 474.185217 38.83722188 477.89821985 36.9375 481.8125 C36.37192383 482.99489258 36.37192383 482.99489258 35.79492188 484.20117188 C34.86829839 486.13652473 33.93482533 488.06859549 33 490 C32.34 490 31.68 490 31 490 C30.8453125 491.0209375 30.8453125 491.0209375 30.6875 492.0625 C29.85274981 495.62915989 28.50527246 498.66222194 27 502 C26.34 502 25.68 502 25 502 C24.91105469 502.66902344 24.82210937 503.33804687 24.73046875 504.02734375 C23.7960796 507.82985787 22.10373352 511.10892245 20.3125 514.5625 C19.58978362 515.98043811 18.86712803 517.39840719 18.14453125 518.81640625 C17.78439941 519.51781738 17.42426758 520.21922852 17.05322266 520.94189453 C15.51358924 523.95049668 14.00711543 526.97497834 12.5 530 C11.66666667 531.66666667 10.83333333 533.33333333 10 535 C9.34 535 8.68 535 8 535 C7.87625 535.721875 7.7525 536.44375 7.625 537.1875 C7.0095069 539.95721894 6.11555626 542.3970354 5 545 C4.34 545 3.68 545 3 545 C2.896875 545.680625 2.79375 546.36125 2.6875 547.0625 C1.85274981 550.62915989 0.50527246 553.66222194 -1 557 C-1.66 557 -2.32 557 -3 557 C-3.103125 557.70125 -3.20625 558.4025 -3.3125 559.125 C-4.1075991 562.44995985 -5.39990007 564.97123942 -7 568 C-7.89905237 569.79005353 -8.79470296 571.5818184 -9.6875 573.375 C-10.45833333 574.91666667 -11.22916667 576.45833333 -12 578 C-12.66 578 -13.32 578 -14 578 C-14.103125 578.680625 -14.20625 579.36125 -14.3125 580.0625 C-15.14725019 583.62915989 -16.49472754 586.66222194 -18 590 C-18.66 590 -19.32 590 -20 590 C-20.103125 590.70125 -20.20625 591.4025 -20.3125 592.125 C-21.1075991 595.44995985 -22.39990007 597.97123942 -24 601 C-24.89905237 602.79005353 -25.79470296 604.5818184 -26.6875 606.375 C-27.45833333 607.91666667 -28.22916667 609.45833333 -29 611 C-29.66 611 -30.32 611 -31 611 C-31.19335938 611.69867187 -31.38671875 612.39734375 -31.5859375 613.1171875 C-31.97652344 614.48230469 -31.97652344 614.48230469 -32.375 615.875 C-32.63023437 616.77992188 -32.88546875 617.68484375 -33.1484375 618.6171875 C-34 621 -34 621 -36 623 C-36.99 623 -37.98 623 -39 623 C-39.33 621.35 -39.66 619.7 -40 618 C-40.66 618 -41.32 618 -42 618 C-42.30292969 617.32195313 -42.60585938 616.64390625 -42.91796875 615.9453125 C-45.49748027 610.21482845 -48.18256008 604.57199985 -51.08203125 598.99609375 C-52 597 -52 597 -52 595 C-52.66 595 -53.32 595 -54 595 C-57 588.375 -57 588.375 -57 585 C-57.66 585 -58.32 585 -59 585 C-59.67354499 583.56570999 -60.33859701 582.12742943 -61 580.6875 C-61.37125 579.88699219 -61.7425 579.08648438 -62.125 578.26171875 C-63 576 -63 576 -63 573 C-63.66 573 -64.32 573 -65 573 C-65.31453125 572.28714844 -65.6290625 571.57429687 -65.953125 570.83984375 C-68.87562435 564.28863871 -68.87562435 564.28863871 -72.3125 558 C-74 555 -74 555 -74 552 C-74.66 552 -75.32 552 -76 552 C-76.67354499 550.56570999 -77.33859701 549.12742943 -78 547.6875 C-78.37125 546.88699219 -78.7425 546.08648438 -79.125 545.26171875 C-80 543 -80 543 -80 540 C-80.66 540 -81.32 540 -82 540 C-85 533.375 -85 533.375 -85 530 C-85.66 530 -86.32 530 -87 530 C-87.67354499 528.56570999 -88.33859701 527.12742943 -89 525.6875 C-89.37125 524.88699219 -89.7425 524.08648438 -90.125 523.26171875 C-91 521 -91 521 -91 518 C-91.66 518 -92.32 518 -93 518 C-94.5094588 514.90034597 -96.00590667 511.79458597 -97.5 508.6875 C-97.92925781 507.80642578 -98.35851562 506.92535156 -98.80078125 506.01757812 C-99.20683594 505.17001953 -99.61289062 504.32246094 -100.03125 503.44921875 C-100.40830078 502.66893311 -100.78535156 501.88864746 -101.17382812 501.0847168 C-102 499 -102 499 -102 496 C-102.66 496 -103.32 496 -104 496 C-104.67354499 494.56570999 -105.33859701 493.12742943 -106 491.6875 C-106.37125 490.88699219 -106.7425 490.08648438 -107.125 489.26171875 C-108 487 -108 487 -108 484 C-108.66 484 -109.32 484 -110 484 C-110.31453125 483.29875 -110.6290625 482.5975 -110.953125 481.875 C-113.83370338 475.47777937 -113.83370338 475.47777937 -116.9375 469.1875 C-125 453.29475309 -125 453.29475309 -125 449 C-125.66 449 -126.32 449 -127 449 C-130.05360169 442.39902272 -132.96573035 435.76298546 -135.69140625 429.01953125 C-136.9854962 426.03346698 -138.40485408 423.14873033 -139.8737793 420.24633789 C-142.02006979 415.96538866 -144.06571227 411.6357821 -146.125 407.3125 C-146.56714844 406.38888672 -147.00929688 405.46527344 -147.46484375 404.51367188 C-147.89152344 403.61841797 -148.31820312 402.72316406 -148.7578125 401.80078125 C-149.33233154 400.59675659 -149.33233154 400.59675659 -149.91845703 399.3684082 C-151.78830859 395.27372876 -153 392.58246128 -153 388 C-153.66 388 -154.32 388 -155 388 C-158.23981069 381.12057218 -161.12470608 374.17328425 -163.81640625 367.0625 C-165.72520955 362.1235502 -167.91587722 357.33049523 -170.1484375 352.53125 C-173.12992558 346.07452421 -175.84405789 339.53469534 -178.4453125 332.91796875 C-179.49129815 330.26036571 -180.57144571 327.62051565 -181.6796875 324.98828125 C-181.95304932 324.33053711 -182.22641113 323.67279297 -182.50805664 322.99511719 C-183.26660834 321.1727514 -184.03343174 319.35383502 -184.80078125 317.53515625 C-186.13682178 313.59666544 -186.61469931 310.12951685 -187 306 C-187.66 306 -188.32 306 -189 306 C-189.50757862 304.58603098 -190.00574925 303.16868271 -190.5 301.75 C-190.7784375 300.96109375 -191.056875 300.1721875 -191.34375 299.359375 C-192 297 -192 297 -192 293 C-192.66 293 -193.32 293 -194 293 C-194.67126129 290.5636811 -195.33716354 288.12611117 -196 285.6875 C-196.19078125 284.99720703 -196.3815625 284.30691406 -196.578125 283.59570312 C-197.37716184 280.64212051 -198 278.07440781 -198 275 C-198.66 275 -199.32 275 -200 275 C-200.16604736 274.17592651 -200.16604736 274.17592651 -200.33544922 273.33520508 C-200.84377727 270.82662467 -201.35932071 268.31957911 -201.875 265.8125 C-202.04902344 264.94818359 -202.22304688 264.08386719 -202.40234375 263.19335938 C-202.57636719 262.35224609 -202.75039063 261.51113281 -202.9296875 260.64453125 C-203.08679199 259.87471924 -203.24389648 259.10490723 -203.40576172 258.31176758 C-203.9514029 255.95161067 -203.9514029 255.95161067 -205.00219727 253.63452148 C-206.195012 250.48510535 -206.60933478 247.54324035 -207.03515625 244.203125 C-207.20466797 242.91535156 -207.37417969 241.62757813 -207.54882812 240.30078125 C-207.72059037 238.9505892 -207.89180796 237.60032776 -208.0625 236.25 C-208.40245346 233.58782035 -208.74864697 230.92665364 -209.09765625 228.265625 C-209.24726807 227.08774414 -209.39687988 225.90986328 -209.55102539 224.69628906 C-209.71657913 222.08963498 -209.71657913 222.08963498 -211 221 C-211.24312697 218.22355 -211.42695934 215.46970917 -211.5625 212.6875 C-211.6042334 211.86443359 -211.6459668 211.04136719 -211.68896484 210.19335938 C-212.14319373 200.72315056 -212.07540294 191.34321075 -211.625 181.875 C-211.57883545 180.78251953 -211.57883545 180.78251953 -211.53173828 179.66796875 C-211.27334137 174.89030641 -210.55090711 170.35496641 -209.55712891 165.67724609 C-208.5352865 160.76685 -207.72393512 155.81768892 -206.875 150.875 C-206.60236328 149.2971875 -206.60236328 149.2971875 -206.32421875 147.6875 C-205.88163964 145.12519986 -205.44025387 142.5627005 -205 140 C-204.34 140 -203.68 140 -203 140 C-202.95101563 139.43152344 -202.90203125 138.86304688 -202.8515625 138.27734375 C-202.36856919 133.28918871 -201.52361837 128.77400422 -200 124 C-199.34 124 -198.68 124 -198 124 C-197.896875 123.030625 -197.79375 122.06125 -197.6875 121.0625 C-197.05370121 116.51406161 -195.55244173 112.30582896 -194 108 C-193.34 108 -192.68 108 -192 108 C-191.87625 107.113125 -191.7525 106.22625 -191.625 105.3125 C-191.05587264 102.29612498 -190.23385564 99.79673946 -189 97 C-188.34 97 -187.68 97 -187 97 C-186.79503906 96.37351562 -186.59007812 95.74703125 -186.37890625 95.1015625 C-186.10949219 94.28429687 -185.84007812 93.46703125 -185.5625 92.625 C-185.29566406 91.81289063 -185.02882813 91.00078125 -184.75390625 90.1640625 C-184 88 -184 88 -183 86 C-182.34 86 -181.68 86 -181 86 C-180.690625 84.5459375 -180.690625 84.5459375 -180.375 83.0625 C-178.41858396 76.17312067 -173.5006146 70.43177624 -169 65 C-168.46375 64.236875 -167.9275 63.47375 -167.375 62.6875 C-166.92125 62.130625 -166.4675 61.57375 -166 61 C-165.34 61 -164.68 61 -164 61 C-163.896875 60.4225 -163.79375 59.845 -163.6875 59.25 C-162.89103535 56.64338842 -161.80934723 55.0264689 -160 53 C-159.34 53 -158.68 53 -158 53 C-157.6596875 51.9171875 -157.6596875 51.9171875 -157.3125 50.8125 C-154.88029626 45.60063483 -150.40019396 42.52015517 -146 39 C-145.23558594 38.22914063 -144.47117187 37.45828125 -143.68359375 36.6640625 C-141.07679345 34.07623455 -138.39430831 31.71274814 -135.5625 29.375 C-134.65628906 28.61960937 -133.75007813 27.86421875 -132.81640625 27.0859375 C-129.99042214 24.99290627 -127.16165356 23.52028448 -124 22 C-122.9805881 21.01979625 -121.97753644 20.02196992 -121 19 C-118.32356113 17.41086442 -117.1819944 17 -114 17 C-114 16.34 -114 15.68 -114 15 C-112.56570999 14.32645501 -111.12742943 13.66140299 -109.6875 13 C-108.48673828 12.443125 -108.48673828 12.443125 -107.26171875 11.875 C-105 11 -105 11 -102 11 C-102 10.34 -102 9.68 -102 9 C-97.33730553 7.3219606 -92.66999517 5.65757533 -88 4 C-87.14792969 3.69320313 -86.29585937 3.38640625 -85.41796875 3.0703125 C-80.65656729 1.40596677 -75.93755277 0.30382873 -70.96875 -0.5703125 C-69.00719986 -0.8127786 -69.00719986 -0.8127786 -68 -2 C-46.79106688 -5.67800486 -20.56143368 -7.17451095 0 0 Z M-139 140 C-139 183.56 -139 227.12 -139 272 C-132.4 272 -125.8 272 -119 272 C-119 256.16 -119 240.32 -119 224 C-111.41 224 -103.82 224 -96 224 C-87.71834139 222.08536192 -87.71834139 222.08536192 -80 219 C-79.505 217.515 -79.505 217.515 -79 216 C-78.2575 215.7525 -77.515 215.505 -76.75 215.25 C-72.12702544 213.14864793 -69.95996434 209.32057495 -68.0546875 204.71484375 C-65.29538673 196.69144005 -64.7895619 189.32146623 -64.75 180.875 C-64.729375 179.79734375 -64.70875 178.7196875 -64.6875 177.609375 C-64.65133621 170.10538951 -64.9280112 158.45979725 -70.3125 152.5625 C-70.869375 152.046875 -71.42625 151.53125 -72 151 C-72.59167969 150.37351562 -73.18335938 149.74703125 -73.79296875 149.1015625 C-76.06777505 146.93546376 -78.30234584 145.41217602 -81 143.8125 C-82.2684375 143.04873047 -82.2684375 143.04873047 -83.5625 142.26953125 C-99.96566149 133.72621797 -120.50535459 140 -139 140 Z M-46 140 C-46 183.56 -46 227.12 -46 272 C-36.1 271.505 -36.1 271.505 -26 271 C-26 255.49 -26 239.98 -26 224 C-18.41 223.67 -10.82 223.34 -3 223 C5.93293271 221.22985501 5.93293271 221.22985501 14 218 C14 217.34 14 216.68 14 216 C14.5775 215.7525 15.155 215.505 15.75 215.25 C20.55347792 212.58140116 22.87388989 208.99635875 25 204 C25 203.01 25 202.02 25 201 C25.66 201 26.32 201 27 201 C30.30415316 187.87189147 30.30415316 173.12810853 27 160 C26.34 160 25.68 160 25 160 C24.71125 159.071875 24.4225 158.14375 24.125 157.1875 C23.1125 153.90208333 23.1125 153.90208333 21 151 C20.34 151 19.68 151 19 151 C18.814375 150.443125 18.62875 149.88625 18.4375 149.3125 C14.50928338 142.993195 9.07459535 141.76864884 2 140 C-13.84 140 -29.68 140 -46 140 Z M47 140 C47 183.23 47 226.46 47 271 C53.6 271 60.2 271 67 271 C67 227.77 67 184.54 67 140 C60.4 140 53.8 140 47 140 Z " fill="#287BC3" transform="translate(630,282)"/>
<path d="M0 0 C1.97477732 0.4969466 3.95409689 0.97618285 5.9375 1.4375 C10.54435248 2.56651927 14.67123635 4.03980514 19 6 C21.98300085 7.05367288 24.9867564 8.03658198 28 9 C28 9.66 28 10.32 28 11 C28.70125 11.103125 29.4025 11.20625 30.125 11.3125 C36.72131002 12.88987848 42.50528978 17.00684556 48.25 20.5 C49.47203125 21.22896484 49.47203125 21.22896484 50.71875 21.97265625 C51.49734375 22.44574219 52.2759375 22.91882813 53.078125 23.40625 C54.13628418 24.04530273 54.13628418 24.04530273 55.21582031 24.69726562 C57 26 57 26 59 29 C59.61875 29.309375 60.2375 29.61875 60.875 29.9375 C63.49341948 31.24670974 64.95044194 32.89350977 67 35 C69.08531913 36.7874164 71.18270547 38.55850604 73.29296875 40.31640625 C75 42 75 42 76 45 C77.32100416 45.69077509 78.65597313 46.35516358 80 47 C81.5625 48.55078125 81.5625 48.55078125 83 50.3125 C83.515625 50.93898438 84.03125 51.56546875 84.5625 52.2109375 C85.036875 52.80132812 85.51125 53.39171875 86 54 C86.66 54.804375 87.32 55.60875 88 56.4375 C88.66 57.283125 89.32 58.12875 90 59 C90.65935547 59.84111328 90.65935547 59.84111328 91.33203125 60.69921875 C95.59188433 66.24039967 99.29881274 72.07635041 103 78 C103.64775391 78.98419922 103.64775391 78.98419922 104.30859375 79.98828125 C107.10831178 84.27506263 109.49358401 88.75091752 111.8125 93.3125 C112.12703125 93.92391846 112.4415625 94.53533691 112.765625 95.1652832 C114.17328439 97.98490316 115 99.80330235 115 103 C115.66 103 116.32 103 117 103 C117.32613281 103.9178125 117.65226562 104.835625 117.98828125 105.78125 C118.42527344 107.0084375 118.86226562 108.235625 119.3125 109.5 C119.54324219 110.14855957 119.77398438 110.79711914 120.01171875 111.46533203 C121.1365213 114.61778076 122.28007294 117.75819213 123.5 120.875 C127.76019038 132.30005603 130.65809752 143.4668471 132.421875 155.52734375 C132.62381776 158.8176133 132.62381776 158.8176133 134 160 C134.04063832 161.66617115 134.042721 163.33388095 134 165 C133.01 165 132.02 165 131 165 C131 162.69 131 160.38 131 158 C130.34 158 129.68 158 129 158 C128.81824219 156.96101562 128.63648438 155.92203125 128.44921875 154.8515625 C127.22052592 147.97517938 125.96797002 141.21585272 123.8125 134.55859375 C122.80174934 131.37570104 121.94261604 128.15886223 121.0625 124.9375 C119.46483246 119.34264916 117.53785433 114.22245535 115 109 C113.91060945 106.71120655 112.82761595 104.41936072 111.75 102.125 C111.22921875 101.03445313 110.7084375 99.94390625 110.171875 98.8203125 C109 96 109 96 109 93 C108.34 93 107.68 93 107 93 C106.70867187 92.46632813 106.41734375 91.93265625 106.1171875 91.3828125 C103.32455422 86.30689414 100.4184386 81.31665005 97.4140625 76.36328125 C96.16974607 74.28369163 94.98278466 72.18419929 93.8125 70.0625 C92.25976244 67.43890894 91.10236656 66.07751589 89 64 C87.56866632 62.28295437 86.15360633 60.55228477 84.75 58.8125 C75.82404768 47.86775394 66.82478585 39.17351557 55.34375 30.91796875 C54.5703125 30.28503906 53.796875 29.65210938 53 29 C53 28.34 53 27.68 53 27 C51.02 26.34 49.04 25.68 47 25 C47 24.34 47 23.68 47 23 C46.29875 22.731875 45.5975 22.46375 44.875 22.1875 C41.83059814 20.93002967 38.94670336 19.47335168 36 18 C32.34259436 16.31274381 28.6728109 14.65341843 25 13 C25 12.34 25 11.68 25 11 C24.43152344 10.89042969 23.86304688 10.78085937 23.27734375 10.66796875 C22.50519531 10.50941406 21.73304688 10.35085938 20.9375 10.1875 C20.18339844 10.03667969 19.42929687 9.88585937 18.65234375 9.73046875 C16 9 16 9 12.7734375 7.55859375 C8.54504458 5.68674732 4.20274275 4.79497611 -0.3125 3.875 C-8.77967258 2.11016371 -8.77967258 2.11016371 -11 1 C-19.57565795 -0.27954261 -28.28934042 -0.18316073 -36.9375 -0.1875 C-38.21818359 -0.19974609 -39.49886719 -0.21199219 -40.81835938 -0.22460938 C-48.76932502 -0.23676062 -56.21223543 0.42302104 -64 2 C-64.83668213 2.15670166 -65.67336426 2.31340332 -66.53540039 2.47485352 C-83.22462783 5.62980336 -97.1927385 11.35308534 -112.19775391 19.140625 C-112.91237793 19.50671875 -113.62700195 19.8728125 -114.36328125 20.25 C-115.01208252 20.58515625 -115.66088379 20.9203125 -116.3293457 21.265625 C-118 22 -118 22 -120 22 C-120 22.66 -120 23.32 -120 24 C-121.66015625 25.05078125 -121.66015625 25.05078125 -124.0625 26.3125 C-137.75174839 34.23785433 -149.86593362 46.56768909 -159.3359375 59.09375 C-159.88507813 59.7228125 -160.43421875 60.351875 -161 61 C-161.66 61 -162.32 61 -163 61 C-163.20625 61.66 -163.4125 62.32 -163.625 63 C-165.19252432 66.42005307 -167.23876752 69.03717721 -169.53515625 71.99609375 C-171.37547868 74.51365484 -172.72247112 77.16104693 -174 80 C-174.66 80 -175.32 80 -176 80 C-176.66 82.31 -177.32 84.62 -178 87 C-178.66 87 -179.32 87 -180 87 C-180.37511719 88.22976563 -180.37511719 88.22976563 -180.7578125 89.484375 C-182.19782391 93.55987898 -183.99435889 97.36366014 -185.875 101.25 C-188.46883188 106.68008884 -190.96908069 112.09934348 -193.11328125 117.7265625 C-193.81434201 119.52399582 -194.60994401 121.28452883 -195.4375 123.02734375 C-197.63341891 128.11766558 -198.57638706 133.52963613 -199.6875 138.9375 C-199.91244141 140.00291016 -200.13738281 141.06832031 -200.36914062 142.16601562 C-200.91923952 144.77605931 -201.46266421 147.38730435 -202 150 C-202.66 150 -203.32 150 -204 150 C-204.06058594 150.7429834 -204.12117188 151.4859668 -204.18359375 152.25146484 C-204.59474315 157.24613934 -205.01560167 162.23841303 -205.5 167.2265625 C-207.15489618 184.79642294 -207.61350742 202.36588326 -208 220 C-207.34 220 -206.68 220 -206 220 C-205.80083984 221.86205078 -205.80083984 221.86205078 -205.59765625 223.76171875 C-205.41938849 225.40365861 -205.24099654 227.04558499 -205.0625 228.6875 C-204.97548828 229.50412109 -204.88847656 230.32074219 -204.79882812 231.16210938 C-204.44355833 234.4121701 -204.0790211 237.60489449 -203.4375 240.8125 C-202.75387751 244.23061246 -202.94103784 247.52123272 -203 251 C-202.34 251 -201.68 251 -201 251 C-200.74605469 252.27875 -200.49210937 253.5575 -200.23046875 254.875 C-199.88315601 256.5834032 -199.53548038 258.29173266 -199.1875 260 C-198.9390332 261.25876953 -198.9390332 261.25876953 -198.68554688 262.54296875 C-197.57450025 267.95145987 -196.04770358 272.87246191 -194 278 C-193.53015358 279.35021522 -193.06929116 280.70366146 -192.625 282.0625 C-192.25761719 283.17625 -192.25761719 283.17625 -191.8828125 284.3125 C-191.59148437 285.199375 -191.30015625 286.08625 -191 287 C-190.16856363 289.52148022 -189.3351919 292.04226634 -188.5 294.5625 C-188.0978125 295.78066406 -187.695625 296.99882813 -187.28125 298.25390625 C-186.16071392 301.53010778 -184.98150117 304.76967713 -183.75439453 308.0065918 C-183.0264867 309.93001169 -182.31369878 311.85832232 -181.60546875 313.7890625 C-178.7153939 321.62186236 -175.64163008 329.30642381 -172.19921875 336.9140625 C-171.01214103 339.9687576 -170.41381337 342.75765052 -170 346 C-169.34 346 -168.68 346 -168 346 C-167.49440092 347.43554025 -166.9957251 348.8735202 -166.5 350.3125 C-166.2215625 351.11300781 -165.943125 351.91351562 -165.65625 352.73828125 C-165 355 -165 355 -165 358 C-164.34 358 -163.68 358 -163 358 C-162.68546875 358.83402344 -162.3709375 359.66804688 -162.046875 360.52734375 C-160.06332697 365.74311915 -158.08367667 370.92940105 -155.75 376 C-154.38799256 378.98213727 -153.42326059 381.71973044 -153 385 C-152.34 385 -151.68 385 -151 385 C-150.32739649 386.76858691 -149.66211605 388.53996016 -149 390.3125 C-148.62875 391.29863281 -148.2575 392.28476562 -147.875 393.30078125 C-147 396 -147 396 -147 399 C-146.34 399 -145.68 399 -145 399 C-144.75765625 399.6290625 -144.5153125 400.258125 -144.265625 400.90625 C-142.70701935 404.88668905 -141.15475999 408.82674045 -139.1875 412.625 C-137.12077912 416.62825462 -135.34769622 420.74113714 -133.5625 424.875 C-131.27484358 430.16142298 -128.88423922 435.35189113 -126.265625 440.484375 C-124.69128806 443.61361262 -123.18106393 446.7689111 -121.6875 449.9375 C-121.17574219 451.01902344 -120.66398437 452.10054687 -120.13671875 453.21484375 C-119 456 -119 456 -119 459 C-118.34 459 -117.68 459 -117 459 C-115.79028885 461.65244044 -114.58293055 464.30590956 -113.37890625 466.9609375 C-112.51555871 468.86372614 -111.6488988 470.76501922 -110.77734375 472.6640625 C-110.41769531 473.45554687 -110.05804687 474.24703125 -109.6875 475.0625 C-109.36136719 475.77535156 -109.03523437 476.48820312 -108.69921875 477.22265625 C-108 479 -108 479 -108 481 C-107.34 481 -106.68 481 -106 481 C-105.63261719 481.82564453 -105.63261719 481.82564453 -105.2578125 482.66796875 C-103.04567562 487.58806629 -100.78001712 492.47469391 -98.44140625 497.3359375 C-97.98942871 498.27671143 -97.53745117 499.21748535 -97.07177734 500.18676758 C-96.15223204 502.09705403 -95.22940153 504.00576272 -94.30322266 505.9128418 C-93.87702637 506.79883057 -93.45083008 507.68481934 -93.01171875 508.59765625 C-92.62459717 509.39695557 -92.23747559 510.19625488 -91.83862305 511.01977539 C-91 513 -91 513 -91 515 C-90.34 515 -89.68 515 -89 515 C-88.32694982 516.60149886 -87.66177773 518.20631029 -87 519.8125 C-86.443125 521.15248047 -86.443125 521.15248047 -85.875 522.51953125 C-85 525 -85 525 -85 528 C-84.34 528 -83.68 528 -83 528 C-82.6146106 528.82407349 -82.6146106 528.82407349 -82.22143555 529.66479492 C-81.04621961 532.17366801 -79.86689925 534.6805909 -78.6875 537.1875 C-78.28337891 538.05181641 -77.87925781 538.91613281 -77.46289062 539.80664062 C-75.48554827 544.00246464 -73.48912418 548.0765939 -71 552 C-69.46350692 554.74951393 -69 555.77414694 -69 559 C-68.34 559 -67.68 559 -67 559 C-61.04296875 570.9140625 -61.04296875 570.9140625 -59.98706055 573.02734375 C-59.1296001 574.74099213 -58.26826842 576.45270239 -57.40625 578.1640625 C-55.99646517 581.00712858 -54.63853736 583.86696381 -53.3125 586.75 C-52.87550781 587.69359375 -52.43851563 588.6371875 -51.98828125 589.609375 C-51 592 -51 592 -51 594 C-50.34 594 -49.68 594 -49 594 C-48.70867187 594.66644531 -48.41734375 595.33289063 -48.1171875 596.01953125 C-43.77956406 607.99497403 -43.77956406 607.99497403 -36 617 C-34.515 612.545 -34.515 612.545 -33 608 C-32.34 608 -31.68 608 -31 608 C-29.515 603.545 -29.515 603.545 -28 599 C-27.34 599 -26.68 599 -26 599 C-25.649375 597.80375 -25.29875 596.6075 -24.9375 595.375 C-21.7211579 585.72597369 -16.46957753 576.79698338 -11.5703125 567.921875 C-9.44390146 563.96526938 -7.45936011 559.94163997 -5.46875 555.91577148 C-1.53411421 547.99565287 2.58249688 540.16988756 6.69555664 532.34130859 C7.50947876 530.78597412 7.50947876 530.78597412 8.33984375 529.19921875 C8.82831787 528.26940186 9.31679199 527.33958496 9.82006836 526.3815918 C11.0938957 523.94798141 11.0938957 523.94798141 12 521 C12.66 521 13.32 521 14 521 C14.25305908 520.16251221 14.25305908 520.16251221 14.51123047 519.30810547 C16.22096377 513.89109473 18.36292078 509.07623809 21.125 504.125 C28.04433091 491.39377452 34.08644659 478.2237752 40 465 C40.66 465 41.32 465 42 465 C42.1546875 463.948125 42.1546875 463.948125 42.3125 462.875 C43.1026701 459.57065232 44.4432257 457.02366555 46 454 C50.07075645 445.93813233 54.11209375 437.86939499 57.9375 429.6875 C58.23172852 429.05980713 58.52595703 428.43211426 58.82910156 427.78540039 C60.0238482 425.21130955 61.10152677 422.69541968 62 420 C62.66 420 63.32 420 64 420 C64.12375 419.113125 64.2475 418.22625 64.375 417.3125 C64.94412736 414.29612498 65.76614436 411.79673946 67 409 C67.66 409 68.32 409 69 409 C69.30744141 407.96939453 69.30744141 407.96939453 69.62109375 406.91796875 C70.02521484 405.56638672 70.02521484 405.56638672 70.4375 404.1875 C70.70433594 403.29417969 70.97117187 402.40085937 71.24609375 401.48046875 C71.80387873 399.64526945 72.39344575 397.81966274 73 396 C73.66 396 74.32 396 75 396 C75.103125 395.34 75.20625 394.68 75.3125 394 C76.19213564 390.16158991 77.56969896 386.66903309 79 383 C79.66 383 80.32 383 81 383 C81.12375 382.29875 81.2475 381.5975 81.375 380.875 C82.03838345 377.82343613 82.97211955 374.94659062 84 372 C84.66 372 85.32 372 86 372 C86.14695312 371.18208984 86.14695312 371.18208984 86.296875 370.34765625 C86.44640625 369.59355469 86.5959375 368.83945312 86.75 368.0625 C86.88921875 367.33160156 87.0284375 366.60070312 87.171875 365.84765625 C88.12996567 362.55308976 89.46841225 359.5639468 90.89013672 356.44604492 C92.73779307 352.37396639 94.45483011 348.2469989 96.1875 344.125 C96.54263672 343.28453125 96.89777344 342.4440625 97.26367188 341.578125 C97.77317383 340.36769531 97.77317383 340.36769531 98.29296875 339.1328125 C98.5974292 338.40980957 98.90188965 337.68680664 99.21557617 336.94189453 C99.87155102 335.3179842 100.44615997 333.66152009 101 332 C101.66 332 102.32 332 103 332 C103.0825 331.071875 103.165 330.14375 103.25 329.1875 C104.00396398 323.86666849 106.07146159 318.98685491 108 314 C109.90208157 309.0459421 111.61280665 304.12194469 113 299 C113.66 299 114.32 299 115 299 C115.103125 298.030625 115.20625 297.06125 115.3125 296.0625 C115.71321204 293.23540991 116.3849294 290.71921479 117.3515625 288.03515625 C119.32585889 282.24392637 120.67979996 276.33015822 122.0625 270.375 C124.80448412 258.66113331 124.80448412 258.66113331 126.0546875 254.43359375 C127.39278171 249.57332595 128.21494938 244.65356656 129.0625 239.6875 C129.23587891 238.70587891 129.40925781 237.72425781 129.58789062 236.71289062 C131.37292049 226.37886714 132.14853173 216.35468456 132.09765625 205.8671875 C132.0962413 204.74933868 132.09482635 203.63148987 132.09336853 202.47976685 C132.08781622 198.94481617 132.07527279 195.40993121 132.0625 191.875 C132.05747883 189.46354259 132.05291701 187.05208417 132.04882812 184.640625 C132.03786246 178.76039463 132.02117253 172.88020201 132 167 C132.99 167 133.98 167 135 167 C135.02326744 174.79796992 135.04098804 182.59593156 135.05181217 190.39392757 C135.05700968 194.01564201 135.06404981 197.63733253 135.07543945 201.2590332 C135.08638044 204.76035863 135.09230037 208.26166118 135.09487724 211.7630024 C135.09759827 213.73531474 135.10539217 215.707618 135.11329651 217.67991638 C135.11370008 224.20166438 134.97759821 230.54544965 134 237 C133.67 237.33 133.34 237.66 133 238 C132.64358838 239.71541812 132.34110356 241.44211529 132.0625 243.171875 C131.80339844 244.75742187 131.80339844 244.75742187 131.5390625 246.375 C131.36117188 247.48875 131.18328125 248.6025 131 249.75 C130.64651239 251.93240176 130.29236869 254.11469738 129.9375 256.296875 C129.78152344 257.26979492 129.62554688 258.24271484 129.46484375 259.24511719 C129.02661236 261.84228265 128.5311946 264.42041561 128 267 C127.34 267 126.68 267 126 267 C125.95875 268.27875 125.9175 269.5575 125.875 270.875 C125.28556659 277.03325948 123.30475438 282.60364306 121.25927734 288.40185547 C119.55753796 293.22820385 118.16970103 298.01605648 117 303 C116.34 303 115.68 303 115 303 C114.92523437 303.54785156 114.85046875 304.09570312 114.7734375 304.66015625 C113.59163948 311.78570312 111.11875223 318.06261807 108.33984375 324.6796875 C107.3412269 327.15439399 106.52922172 329.39962659 106 332 C105.34 332 104.68 332 104 332 C103.82984375 332.76183594 103.6596875 333.52367187 103.484375 334.30859375 C101.92623875 340.94724873 99.96729444 346.8766786 97 353 C94.09353469 359.26284785 91.3306407 365.4987391 89 372 C88.34 372 87.68 372 87 372 C86.85304688 372.8353125 86.85304688 372.8353125 86.703125 373.6875 C85.77058859 378.44665133 84.4872202 382.43310824 82.20703125 386.703125 C78.25930843 394.21529658 74.82369279 401.9995371 72 410 C71.34 410 70.68 410 70 410 C69.74476563 410.94359375 69.74476563 410.94359375 69.484375 411.90625 C68.04875655 416.97673218 66.38348844 421.58118849 63.91796875 426.23828125 C62.77568293 428.43049788 61.86739759 430.68693977 61 433 C60.34 433 59.68 433 59 433 C58.91878906 433.63292969 58.83757812 434.26585937 58.75390625 434.91796875 C57.68298789 439.2959718 55.80650375 443.22264205 53.9375 447.3125 C53.56044922 448.14845703 53.18339844 448.98441406 52.79492188 449.84570312 C51.86788193 451.89927262 50.93613122 453.95056287 50 456 C49.34 456 48.68 456 48 456 C47.69255859 457.04800781 47.69255859 457.04800781 47.37890625 458.1171875 C47.10949219 459.02726562 46.84007812 459.93734375 46.5625 460.875 C46.29566406 461.77992188 46.02882813 462.68484375 45.75390625 463.6171875 C45 466 45 466 44 468 C43.34 468 42.68 468 42 468 C41.87818359 468.96486328 41.87818359 468.96486328 41.75390625 469.94921875 C40.70711027 474.185217 38.83722188 477.89821985 36.9375 481.8125 C36.37192383 482.99489258 36.37192383 482.99489258 35.79492188 484.20117188 C34.86829839 486.13652473 33.93482533 488.06859549 33 490 C32.34 490 31.68 490 31 490 C30.8453125 491.0209375 30.8453125 491.0209375 30.6875 492.0625 C29.85274981 495.62915989 28.50527246 498.66222194 27 502 C26.34 502 25.68 502 25 502 C24.91105469 502.66902344 24.82210937 503.33804687 24.73046875 504.02734375 C23.7960796 507.82985787 22.10373352 511.10892245 20.3125 514.5625 C19.58978362 515.98043811 18.86712803 517.39840719 18.14453125 518.81640625 C17.78439941 519.51781738 17.42426758 520.21922852 17.05322266 520.94189453 C15.51358924 523.95049668 14.00711543 526.97497834 12.5 530 C11.66666667 531.66666667 10.83333333 533.33333333 10 535 C9.34 535 8.68 535 8 535 C7.87625 535.721875 7.7525 536.44375 7.625 537.1875 C7.0095069 539.95721894 6.11555626 542.3970354 5 545 C4.34 545 3.68 545 3 545 C2.896875 545.680625 2.79375 546.36125 2.6875 547.0625 C1.85274981 550.62915989 0.50527246 553.66222194 -1 557 C-1.66 557 -2.32 557 -3 557 C-3.103125 557.70125 -3.20625 558.4025 -3.3125 559.125 C-4.1075991 562.44995985 -5.39990007 564.97123942 -7 568 C-7.89905237 569.79005353 -8.79470296 571.5818184 -9.6875 573.375 C-10.45833333 574.91666667 -11.22916667 576.45833333 -12 578 C-12.66 578 -13.32 578 -14 578 C-14.103125 578.680625 -14.20625 579.36125 -14.3125 580.0625 C-15.14725019 583.62915989 -16.49472754 586.66222194 -18 590 C-18.66 590 -19.32 590 -20 590 C-20.103125 590.70125 -20.20625 591.4025 -20.3125 592.125 C-21.1075991 595.44995985 -22.39990007 597.97123942 -24 601 C-24.89905237 602.79005353 -25.79470296 604.5818184 -26.6875 606.375 C-27.45833333 607.91666667 -28.22916667 609.45833333 -29 611 C-29.66 611 -30.32 611 -31 611 C-31.19335938 611.69867187 -31.38671875 612.39734375 -31.5859375 613.1171875 C-31.97652344 614.48230469 -31.97652344 614.48230469 -32.375 615.875 C-32.63023437 616.77992188 -32.88546875 617.68484375 -33.1484375 618.6171875 C-34 621 -34 621 -36 623 C-36.99 623 -37.98 623 -39 623 C-39.33 621.35 -39.66 619.7 -40 618 C-40.66 618 -41.32 618 -42 618 C-42.30292969 617.32195313 -42.60585938 616.64390625 -42.91796875 615.9453125 C-45.49748027 610.21482845 -48.18256008 604.57199985 -51.08203125 598.99609375 C-52 597 -52 597 -52 595 C-52.66 595 -53.32 595 -54 595 C-57 588.375 -57 588.375 -57 585 C-57.66 585 -58.32 585 -59 585 C-59.67354499 583.56570999 -60.33859701 582.12742943 -61 580.6875 C-61.37125 579.88699219 -61.7425 579.08648438 -62.125 578.26171875 C-63 576 -63 576 -63 573 C-63.66 573 -64.32 573 -65 573 C-65.31453125 572.28714844 -65.6290625 571.57429687 -65.953125 570.83984375 C-68.87562435 564.28863871 -68.87562435 564.28863871 -72.3125 558 C-74 555 -74 555 -74 552 C-74.66 552 -75.32 552 -76 552 C-76.67354499 550.56570999 -77.33859701 549.12742943 -78 547.6875 C-78.37125 546.88699219 -78.7425 546.08648438 -79.125 545.26171875 C-80 543 -80 543 -80 540 C-80.66 540 -81.32 540 -82 540 C-85 533.375 -85 533.375 -85 530 C-85.66 530 -86.32 530 -87 530 C-87.67354499 528.56570999 -88.33859701 527.12742943 -89 525.6875 C-89.37125 524.88699219 -89.7425 524.08648438 -90.125 523.26171875 C-91 521 -91 521 -91 518 C-91.66 518 -92.32 518 -93 518 C-94.5094588 514.90034597 -96.00590667 511.79458597 -97.5 508.6875 C-97.92925781 507.80642578 -98.35851562 506.92535156 -98.80078125 506.01757812 C-99.20683594 505.17001953 -99.61289062 504.32246094 -100.03125 503.44921875 C-100.40830078 502.66893311 -100.78535156 501.88864746 -101.17382812 501.0847168 C-102 499 -102 499 -102 496 C-102.66 496 -103.32 496 -104 496 C-104.67354499 494.56570999 -105.33859701 493.12742943 -106 491.6875 C-106.37125 490.88699219 -106.7425 490.08648438 -107.125 489.26171875 C-108 487 -108 487 -108 484 C-108.66 484 -109.32 484 -110 484 C-110.31453125 483.29875 -110.6290625 482.5975 -110.953125 481.875 C-113.83370338 475.47777937 -113.83370338 475.47777937 -116.9375 469.1875 C-125 453.29475309 -125 453.29475309 -125 449 C-125.66 449 -126.32 449 -127 449 C-130.05360169 442.39902272 -132.96573035 435.76298546 -135.69140625 429.01953125 C-136.9854962 426.03346698 -138.40485408 423.14873033 -139.8737793 420.24633789 C-142.02006979 415.96538866 -144.06571227 411.6357821 -146.125 407.3125 C-146.56714844 406.38888672 -147.00929688 405.46527344 -147.46484375 404.51367188 C-147.89152344 403.61841797 -148.31820312 402.72316406 -148.7578125 401.80078125 C-149.33233154 400.59675659 -149.33233154 400.59675659 -149.91845703 399.3684082 C-151.78830859 395.27372876 -153 392.58246128 -153 388 C-153.66 388 -154.32 388 -155 388 C-158.23981069 381.12057218 -161.12470608 374.17328425 -163.81640625 367.0625 C-165.72520955 362.1235502 -167.91587722 357.33049523 -170.1484375 352.53125 C-173.12992558 346.07452421 -175.84405789 339.53469534 -178.4453125 332.91796875 C-179.49129815 330.26036571 -180.57144571 327.62051565 -181.6796875 324.98828125 C-181.95304932 324.33053711 -182.22641113 323.67279297 -182.50805664 322.99511719 C-183.26660834 321.1727514 -184.03343174 319.35383502 -184.80078125 317.53515625 C-186.13682178 313.59666544 -186.61469931 310.12951685 -187 306 C-187.66 306 -188.32 306 -189 306 C-189.50757862 304.58603098 -190.00574925 303.16868271 -190.5 301.75 C-190.7784375 300.96109375 -191.056875 300.1721875 -191.34375 299.359375 C-192 297 -192 297 -192 293 C-192.66 293 -193.32 293 -194 293 C-194.67126129 290.5636811 -195.33716354 288.12611117 -196 285.6875 C-196.19078125 284.99720703 -196.3815625 284.30691406 -196.578125 283.59570312 C-197.37716184 280.64212051 -198 278.07440781 -198 275 C-198.66 275 -199.32 275 -200 275 C-200.16604736 274.17592651 -200.16604736 274.17592651 -200.33544922 273.33520508 C-200.84377727 270.82662467 -201.35932071 268.31957911 -201.875 265.8125 C-202.04902344 264.94818359 -202.22304688 264.08386719 -202.40234375 263.19335938 C-202.57636719 262.35224609 -202.75039063 261.51113281 -202.9296875 260.64453125 C-203.08679199 259.87471924 -203.24389648 259.10490723 -203.40576172 258.31176758 C-203.9514029 255.95161067 -203.9514029 255.95161067 -205.00219727 253.63452148 C-206.195012 250.48510535 -206.60933478 247.54324035 -207.03515625 244.203125 C-207.20466797 242.91535156 -207.37417969 241.62757813 -207.54882812 240.30078125 C-207.72059037 238.9505892 -207.89180796 237.60032776 -208.0625 236.25 C-208.40245346 233.58782035 -208.74864697 230.92665364 -209.09765625 228.265625 C-209.24726807 227.08774414 -209.39687988 225.90986328 -209.55102539 224.69628906 C-209.71657913 222.08963498 -209.71657913 222.08963498 -211 221 C-211.24312697 218.22355 -211.42695934 215.46970917 -211.5625 212.6875 C-211.6042334 211.86443359 -211.6459668 211.04136719 -211.68896484 210.19335938 C-212.14319373 200.72315056 -212.07540294 191.34321075 -211.625 181.875 C-211.57883545 180.78251953 -211.57883545 180.78251953 -211.53173828 179.66796875 C-211.27334137 174.89030641 -210.55090711 170.35496641 -209.55712891 165.67724609 C-208.5352865 160.76685 -207.72393512 155.81768892 -206.875 150.875 C-206.60236328 149.2971875 -206.60236328 149.2971875 -206.32421875 147.6875 C-205.88163964 145.12519986 -205.44025387 142.5627005 -205 140 C-204.34 140 -203.68 140 -203 140 C-202.95101563 139.43152344 -202.90203125 138.86304688 -202.8515625 138.27734375 C-202.36856919 133.28918871 -201.52361837 128.77400422 -200 124 C-199.34 124 -198.68 124 -198 124 C-197.896875 123.030625 -197.79375 122.06125 -197.6875 121.0625 C-197.05370121 116.51406161 -195.55244173 112.30582896 -194 108 C-193.34 108 -192.68 108 -192 108 C-191.87625 107.113125 -191.7525 106.22625 -191.625 105.3125 C-191.05587264 102.29612498 -190.23385564 99.79673946 -189 97 C-188.34 97 -187.68 97 -187 97 C-186.79503906 96.37351562 -186.59007812 95.74703125 -186.37890625 95.1015625 C-186.10949219 94.28429687 -185.84007812 93.46703125 -185.5625 92.625 C-185.29566406 91.81289063 -185.02882813 91.00078125 -184.75390625 90.1640625 C-184 88 -184 88 -183 86 C-182.34 86 -181.68 86 -181 86 C-180.690625 84.5459375 -180.690625 84.5459375 -180.375 83.0625 C-178.41858396 76.17312067 -173.5006146 70.43177624 -169 65 C-168.46375 64.236875 -167.9275 63.47375 -167.375 62.6875 C-166.92125 62.130625 -166.4675 61.57375 -166 61 C-165.34 61 -164.68 61 -164 61 C-163.896875 60.4225 -163.79375 59.845 -163.6875 59.25 C-162.89103535 56.64338842 -161.80934723 55.0264689 -160 53 C-159.34 53 -158.68 53 -158 53 C-157.6596875 51.9171875 -157.6596875 51.9171875 -157.3125 50.8125 C-154.88029626 45.60063483 -150.40019396 42.52015517 -146 39 C-145.23558594 38.22914063 -144.47117187 37.45828125 -143.68359375 36.6640625 C-141.07679345 34.07623455 -138.39430831 31.71274814 -135.5625 29.375 C-134.65628906 28.61960937 -133.75007813 27.86421875 -132.81640625 27.0859375 C-129.99042214 24.99290627 -127.16165356 23.52028448 -124 22 C-122.9805881 21.01979625 -121.97753644 20.02196992 -121 19 C-118.32356113 17.41086442 -117.1819944 17 -114 17 C-114 16.34 -114 15.68 -114 15 C-112.56570999 14.32645501 -111.12742943 13.66140299 -109.6875 13 C-108.48673828 12.443125 -108.48673828 12.443125 -107.26171875 11.875 C-105 11 -105 11 -102 11 C-102 10.34 -102 9.68 -102 9 C-97.33730553 7.3219606 -92.66999517 5.65757533 -88 4 C-87.14792969 3.69320313 -86.29585937 3.38640625 -85.41796875 3.0703125 C-80.65656729 1.40596677 -75.93755277 0.30382873 -70.96875 -0.5703125 C-69.00719986 -0.8127786 -69.00719986 -0.8127786 -68 -2 C-46.79106688 -5.67800486 -20.56143368 -7.17451095 0 0 Z " fill="#0E63B7" transform="translate(630,282)"/>
<path d="M0 0 C3.00024947 -0.05444001 5.99949039 -0.0938836 9 -0.125 C9.83917969 -0.14175781 10.67835938 -0.15851563 11.54296875 -0.17578125 C18.21530428 -0.22750478 24.38602492 0.01110592 29.875 4.1875 C34.29902143 10.04282248 34.34044163 16.4251804 34.3125 23.5 C34.33666992 24.72396484 34.33666992 24.72396484 34.36132812 25.97265625 C34.36652798 32.45167312 33.25762138 37.23259315 29.0625 42.375 C24.29774222 46.12905159 17.67793864 45.37237527 11.875 45.625 C10.86050781 45.6765625 9.84601562 45.728125 8.80078125 45.78125 C7.83269531 45.82507813 6.86460937 45.86890625 5.8671875 45.9140625 C4.98144043 45.9548291 4.09569336 45.9955957 3.18310547 46.03759766 C1 46 1 46 -1 45 C-1.02467081 38.91276345 -1.04284604 32.82555583 -1.05493164 26.73828125 C-1.05996852 24.66633599 -1.06679825 22.5943943 -1.07543945 20.52246094 C-1.08753321 17.54881918 -1.09323467 14.57522431 -1.09765625 11.6015625 C-1.10281754 10.67131256 -1.10797882 9.74106262 -1.11329651 8.78262329 C-1.11337204 7.92188202 -1.11344757 7.06114075 -1.11352539 6.17431641 C-1.115746 5.41486725 -1.11796661 4.65541809 -1.12025452 3.87295532 C-1 2 -1 2 0 0 Z " fill="#277AC2" transform="translate(604,440)"/>
<path d="M0 0 C0.85142578 -0.01224609 1.70285156 -0.02449219 2.58007812 -0.03710938 C8.68408156 -0.0512718 13.34100321 0.64967978 18.625 3.9375 C21.27799978 6.66629977 21.55771793 8.45069631 21.8125 12.1875 C22.4725 12.1875 23.1325 12.1875 23.8125 12.1875 C25.7193343 33.33869278 25.7193343 33.33869278 19.8125 41.1875 C14.4424149 46.06939554 9.0260653 45.87399141 2 46 C0.93845703 46.03802734 -0.12308594 46.07605469 -1.21679688 46.11523438 C-6.79855158 46.28307985 -6.79855158 46.28307985 -9.1875 46.1875 C-10.73251451 44.64248549 -10.31469131 43.2008978 -10.31689453 41.05078125 C-10.32004669 40.17317139 -10.32319885 39.29556152 -10.32644653 38.39135742 C-10.3244223 37.43720947 -10.32239807 36.48306152 -10.3203125 35.5 C-10.32126923 34.52716064 -10.32222595 33.55432129 -10.32321167 32.55200195 C-10.32389358 30.490722 -10.32203853 28.42943992 -10.31787109 26.36816406 C-10.312523 23.20112312 -10.31781572 20.034224 -10.32421875 16.8671875 C-10.32355797 14.86979135 -10.32227681 12.87239529 -10.3203125 10.875 C-10.32233673 9.92085205 -10.32436096 8.9667041 -10.32644653 7.98364258 C-10.32329437 7.10603271 -10.32014221 6.22842285 -10.31689453 5.32421875 C-10.31609894 4.54780029 -10.31530334 3.77138184 -10.31448364 2.97143555 C-9.98323616 -1.68210995 -3.5198228 0.00260535 0 0 Z " fill="#287BC2" transform="translate(521.1875,439.8125)"/>
<path d="M0 0 C1.44334465 -0.02409439 1.44334465 -0.02409439 2.91584778 -0.04867554 C7.36576712 -0.09323891 11.81553385 -0.13427676 16.265625 -0.15722656 C18.60199003 -0.17369007 20.93830673 -0.20085065 23.27441406 -0.23925781 C52.23020408 -0.71282901 52.23020408 -0.71282901 63.23706055 9.88037109 C64.0569043 10.64736328 64.87674805 11.41435547 65.72143555 12.20458984 C67.48706055 14.19287109 67.48706055 14.19287109 67.48706055 16.19287109 C68.14706055 16.19287109 68.80706055 16.19287109 69.48706055 16.19287109 C70.11432162 17.73361918 70.73875065 19.27552033 71.36206055 20.81787109 C71.71010742 21.67638672 72.0581543 22.53490234 72.41674805 23.41943359 C72.76995117 24.33466797 73.1231543 25.24990234 73.48706055 26.19287109 C74.03426758 27.50771484 74.03426758 27.50771484 74.5925293 28.84912109 C78.6999535 44.20263691 75.86421044 62.26413779 67.98706055 75.94287109 C65.89106413 78.93148428 63.56989622 81.1931939 60.48706055 83.19287109 C59.82706055 83.19287109 59.16706055 83.19287109 58.48706055 83.19287109 C58.48706055 83.85287109 58.48706055 84.51287109 58.48706055 85.19287109 C48.22216341 90.39247319 40.47534628 91.22630926 29.1784668 91.20458984 C28.34222778 91.2037439 27.50598877 91.20289795 26.64440918 91.20202637 C24.59195854 91.1998281 22.53950921 91.19646557 20.48706055 91.19287109 C20.49372238 92.06943863 20.49372238 92.06943863 20.5005188 92.9637146 C20.54466817 99.03030967 20.57489189 105.09685932 20.59692383 111.16357422 C20.60699914 113.42954359 20.62065973 115.6954999 20.63793945 117.96142578 C20.66212065 121.2130861 20.67352818 124.46457497 20.68237305 127.71630859 C20.69269562 128.73405365 20.70301819 129.75179871 20.71365356 130.80038452 C20.71380463 131.7412088 20.71395569 132.68203308 20.71411133 133.65136719 C20.71855255 134.48187592 20.72299377 135.31238464 20.72756958 136.1680603 C20.48706055 138.19287109 20.48706055 138.19287109 18.48706055 140.19287109 C16.2722168 140.45166016 16.2722168 140.45166016 13.54956055 140.45849609 C12.57245117 140.46107422 11.5953418 140.46365234 10.58862305 140.46630859 C9.05334961 140.45470703 9.05334961 140.45470703 7.48706055 140.44287109 C6.46354492 140.45060547 5.4400293 140.45833984 4.38549805 140.46630859 C3.40838867 140.46373047 2.4312793 140.46115234 1.42456055 140.45849609 C0.52608398 140.45624023 -0.37239258 140.45398438 -1.2980957 140.45166016 C-3.51293945 140.19287109 -3.51293945 140.19287109 -5.51293945 138.19287109 C-5.76182842 135.80998898 -5.76182842 135.80998898 -5.76017761 132.75804138 C-5.7643721 131.60399811 -5.76856659 130.44995483 -5.77288818 129.26094055 C-5.76445892 127.35250618 -5.76445892 127.35250618 -5.75585938 125.40551758 C-5.75693187 124.05710762 -5.75887007 122.70869812 -5.76161194 121.36029053 C-5.76646819 117.69305808 -5.75879529 114.02594691 -5.7486589 110.35872912 C-5.73989257 106.52748925 -5.74163555 102.69625335 -5.74201965 98.86500549 C-5.74108246 92.43138594 -5.73239055 85.99781349 -5.71875 79.56420898 C-5.70301723 72.11607091 -5.69775209 64.66798442 -5.69848555 57.21983093 C-5.69909498 50.06614872 -5.69399777 42.91248338 -5.68569374 35.75880623 C-5.68215473 32.7089735 -5.68032961 29.65914674 -5.67980003 26.60931206 C-5.67879867 23.02165195 -5.67271904 19.43403549 -5.6626339 15.84638977 C-5.65829902 13.89402208 -5.65888209 11.94164545 -5.65957642 9.98927307 C-5.65531143 8.83804962 -5.65104645 7.68682617 -5.64665222 6.50071716 C-5.64497638 5.49395148 -5.64330053 4.4871858 -5.64157391 3.44991207 C-5.41231414 -0.57271699 -3.57046878 0.05403166 0 0 Z M-2.51293945 4.19287109 C-2.51293945 47.75287109 -2.51293945 91.31287109 -2.51293945 136.19287109 C4.08706055 136.19287109 10.68706055 136.19287109 17.48706055 136.19287109 C17.48706055 120.35287109 17.48706055 104.51287109 17.48706055 88.19287109 C25.07706055 88.19287109 32.66706055 88.19287109 40.48706055 88.19287109 C48.76871915 86.27823301 48.76871915 86.27823301 56.48706055 83.19287109 C56.98206055 81.70787109 56.98206055 81.70787109 57.48706055 80.19287109 C58.22956055 79.94537109 58.97206055 79.69787109 59.73706055 79.44287109 C64.36003511 77.34151902 66.52709621 73.51344605 68.43237305 68.90771484 C71.19167382 60.88431115 71.69749864 53.51433733 71.73706055 45.06787109 C71.75768555 43.99021484 71.77831055 42.91255859 71.79956055 41.80224609 C71.83572433 34.2982606 71.55904934 22.65266835 66.17456055 16.75537109 C65.61768555 16.23974609 65.06081055 15.72412109 64.48706055 15.19287109 C63.89538086 14.56638672 63.30370117 13.93990234 62.6940918 13.29443359 C60.4192855 11.12833486 58.18471471 9.60504711 55.48706055 8.00537109 C54.21862305 7.24160156 54.21862305 7.24160156 52.92456055 6.46240234 C36.52139905 -2.08091093 15.98170595 4.19287109 -2.51293945 4.19287109 Z " fill="#0F60B6" transform="translate(493.512939453125,417.80712890625)"/>
<path d="M0 0 C0.97514053 -0.00960754 1.95028107 -0.01921509 2.95497131 -0.02911377 C4.01840256 -0.03336365 5.0818338 -0.03761353 6.17749023 -0.04199219 C7.26690414 -0.04769226 8.35631805 -0.05339233 9.47874451 -0.05926514 C11.79311141 -0.06873597 14.10749192 -0.07525734 16.421875 -0.07910156 C19.94677752 -0.08875949 23.4710853 -0.11974387 26.99584961 -0.15136719 C29.24389302 -0.15790176 31.49194061 -0.16315044 33.73999023 -0.16699219 C35.31388268 -0.18551239 35.31388268 -0.18551239 36.91957092 -0.20440674 C47.73476818 -0.17185831 56.59067619 3.37961563 64.54858398 10.78613281 C74.85865931 21.57574653 75.91584348 34.55423964 75.59936523 48.75878906 C75.18166771 60.75413955 72.59939193 71.11011057 64.46655273 80.39550781 C57.39668883 86.92153603 49.90196237 90.14961983 40.34545898 90.47753906 C39.18530273 90.51943359 38.02514648 90.56132812 36.82983398 90.60449219 C35.62327148 90.64380859 34.41670898 90.683125 33.17358398 90.72363281 C31.95155273 90.76681641 30.72952148 90.81 29.47045898 90.85449219 C26.45494478 90.96050636 23.4393495 91.06257217 20.42358398 91.16113281 C20.4258046 91.74773178 20.42802521 92.33433075 20.43031311 92.93870544 C20.45236608 99.02138665 20.46749063 105.10405658 20.47851562 111.18676758 C20.48355724 113.45955873 20.49039036 115.73234661 20.49902344 118.00512695 C20.51109659 121.26416833 20.51681386 124.52316698 20.52124023 127.78222656 C20.52640152 128.8051329 20.53156281 129.82803925 20.53688049 130.88194275 C20.53699379 132.29329247 20.53699379 132.29329247 20.53710938 133.7331543 C20.53932999 134.56588364 20.5415506 135.39861298 20.5438385 136.25657654 C20.42358398 138.16113281 20.42358398 138.16113281 19.42358398 139.16113281 C15.80552528 139.41315165 12.17438319 139.34635816 8.54858398 139.34863281 C7.52893555 139.36087891 6.50928711 139.373125 5.45874023 139.38574219 C3.99114258 139.38864258 3.99114258 139.38864258 2.49389648 139.39160156 C1.59429199 139.39571045 0.6946875 139.39981934 -0.23217773 139.40405273 C-2.57641602 139.16113281 -2.57641602 139.16113281 -5.57641602 137.16113281 C-5.94835281 134.79386806 -5.94835281 134.79386806 -5.94390869 131.76426697 C-5.94947784 130.61863785 -5.955047 129.47300873 -5.96078491 128.29266357 C-5.95157013 127.02972473 -5.94235535 125.76678589 -5.93286133 124.46557617 C-5.93365186 123.12701789 -5.93574808 121.78845983 -5.9390564 120.4499054 C-5.94420029 116.80946793 -5.93063617 113.16931207 -5.9135294 109.52891994 C-5.89852258 105.72571279 -5.89966814 101.92250975 -5.89886475 98.11927795 C-5.89516961 91.73270848 -5.88018908 85.34624633 -5.85766602 78.9597168 C-5.82877956 70.75187553 -5.81844219 62.54412067 -5.81398392 54.33623409 C-5.81000917 47.29207459 -5.79750693 40.24793402 -5.78363705 33.20378804 C-5.77953169 30.93331842 -5.77660932 28.66284947 -5.77384186 26.39237785 C-5.7689604 22.83097563 -5.75877663 19.26962622 -5.74440384 15.70825005 C-5.7376973 13.77019979 -5.73587406 11.83213459 -5.73416138 9.89407349 C-5.72845123 8.75126419 -5.72274109 7.6084549 -5.71685791 6.43101501 C-5.71388325 5.43162368 -5.71090858 4.43223234 -5.70784378 3.40255642 C-5.47104603 -0.63589059 -3.57414958 0.02831473 0 0 Z M-2.57641602 4.16113281 C-2.57641602 47.72113281 -2.57641602 91.28113281 -2.57641602 136.16113281 C7.32358398 135.66613281 7.32358398 135.66613281 17.42358398 135.16113281 C17.42358398 119.65113281 17.42358398 104.14113281 17.42358398 88.16113281 C25.01358398 87.83113281 32.60358398 87.50113281 40.42358398 87.16113281 C49.35651669 85.39098782 49.35651669 85.39098782 57.42358398 82.16113281 C57.42358398 81.50113281 57.42358398 80.84113281 57.42358398 80.16113281 C58.00108398 79.91363281 58.57858398 79.66613281 59.17358398 79.41113281 C63.9770619 76.74253397 66.29747388 73.15749156 68.42358398 68.16113281 C68.42358398 67.17113281 68.42358398 66.18113281 68.42358398 65.16113281 C69.08358398 65.16113281 69.74358398 65.16113281 70.42358398 65.16113281 C73.72773714 52.03302428 73.72773714 37.28924135 70.42358398 24.16113281 C69.76358398 24.16113281 69.10358398 24.16113281 68.42358398 24.16113281 C68.13483398 23.23300781 67.84608398 22.30488281 67.54858398 21.34863281 C66.53608398 18.06321615 66.53608398 18.06321615 64.42358398 15.16113281 C63.76358398 15.16113281 63.10358398 15.16113281 62.42358398 15.16113281 C62.23795898 14.60425781 62.05233398 14.04738281 61.86108398 13.47363281 C57.93286736 7.15432781 52.49817934 5.92978165 45.42358398 4.16113281 C29.58358398 4.16113281 13.74358398 4.16113281 -2.57641602 4.16113281 Z " fill="#1467B8" transform="translate(586.576416015625,417.8388671875)"/>
<path d="M0 0 C0.94673584 0.00410889 1.89347168 0.00821777 2.86889648 0.01245117 C3.89563477 0.01438477 4.92237305 0.01631836 5.98022461 0.01831055 C7.05594727 0.03055664 8.13166992 0.04280273 9.23999023 0.05541992 C10.31958008 0.05606445 11.39916992 0.05670898 12.51147461 0.05737305 C20.53734426 0.10277394 20.53734426 0.10277394 21.67749023 1.24291992 C21.77598678 2.99729443 21.80381099 4.75566495 21.80447388 6.51280212 C21.8072937 7.65561142 21.81011353 8.79842072 21.8130188 9.9758606 C21.81099457 11.24082367 21.80897034 12.50578674 21.80688477 13.80908203 C21.80823881 15.14586942 21.81001876 16.48265644 21.81219482 17.81944275 C21.8167692 21.45990683 21.81497947 25.1003427 21.81181574 28.74080729 C21.80929164 32.54356003 21.81162987 36.34631028 21.8132019 40.14906311 C21.81502367 46.53736812 21.81261733 52.92566159 21.80786133 59.31396484 C21.80242102 66.7069599 21.80417965 74.09992738 21.80968773 81.49292177 C21.81422142 87.83092738 21.81486808 94.16892466 21.81224906 100.50693136 C21.81068741 104.2964187 21.81048945 108.08589306 21.81378555 111.87537956 C21.81666789 115.43840009 21.81468186 119.00138496 21.8088913 122.56440163 C21.80693159 124.50108414 21.8099147 126.43776966 21.8130188 128.37445068 C21.80878906 130.09289436 21.80878906 130.09289436 21.80447388 131.84605408 C21.80409685 132.84582244 21.80371983 133.8455908 21.80333138 134.87565517 C21.67749023 137.24291992 21.67749023 137.24291992 20.67749023 139.24291992 C16.88583949 139.27185363 13.09421696 139.28969594 9.30249023 139.30541992 C8.22225586 139.31379883 7.14202148 139.32217773 6.02905273 139.33081055 C4.99780273 139.3340332 3.96655273 139.33725586 2.90405273 139.34057617 C1.95095215 139.34581299 0.99785156 139.3510498 0.01586914 139.35644531 C-2.32250977 139.24291992 -2.32250977 139.24291992 -4.32250977 138.24291992 C-4.36918236 120.54527405 -4.4044753 102.84764409 -4.42613411 85.14995003 C-4.43645692 76.93303498 -4.45053638 68.71615812 -4.47338867 60.49926758 C-4.49329187 53.33937107 -4.50621889 46.17950221 -4.51068676 39.01957881 C-4.51329936 35.22669292 -4.51946083 31.43388614 -4.53396988 27.64102554 C-4.54750537 24.07389797 -4.55174064 20.50688241 -4.54872513 16.9397316 C-4.54954107 15.00063909 -4.56032375 13.06155889 -4.5713501 11.12249756 C-4.56860077 9.97542328 -4.56585144 8.828349 -4.5630188 7.64651489 C-4.56486238 6.64544771 -4.56670597 5.64438053 -4.56860542 4.61297798 C-4.22616403 1.31504903 -3.30752266 0.34594608 0 0 Z M-1.32250977 4.24291992 C-1.32250977 47.47291992 -1.32250977 90.70291992 -1.32250977 135.24291992 C5.27749023 135.24291992 11.87749023 135.24291992 18.67749023 135.24291992 C18.67749023 92.01291992 18.67749023 48.78291992 18.67749023 4.24291992 C12.07749023 4.24291992 5.47749023 4.24291992 -1.32250977 4.24291992 Z " fill="#0662B7" transform="translate(678.322509765625,417.757080078125)"/>
<path d="M0 0 C0.85142578 -0.01224609 1.70285156 -0.02449219 2.58007812 -0.03710938 C8.68408156 -0.0512718 13.34100321 0.64967978 18.625 3.9375 C21.27799978 6.66629977 21.55771793 8.45069631 21.8125 12.1875 C22.4725 12.1875 23.1325 12.1875 23.8125 12.1875 C25.7193343 33.33869278 25.7193343 33.33869278 19.8125 41.1875 C14.4424149 46.06939554 9.0260653 45.87399141 2 46 C0.93845703 46.03802734 -0.12308594 46.07605469 -1.21679688 46.11523438 C-6.79855158 46.28307985 -6.79855158 46.28307985 -9.1875 46.1875 C-10.73251451 44.64248549 -10.31469131 43.2008978 -10.31689453 41.05078125 C-10.32004669 40.17317139 -10.32319885 39.29556152 -10.32644653 38.39135742 C-10.3244223 37.43720947 -10.32239807 36.48306152 -10.3203125 35.5 C-10.32126923 34.52716064 -10.32222595 33.55432129 -10.32321167 32.55200195 C-10.32389358 30.490722 -10.32203853 28.42943992 -10.31787109 26.36816406 C-10.312523 23.20112312 -10.31781572 20.034224 -10.32421875 16.8671875 C-10.32355797 14.86979135 -10.32227681 12.87239529 -10.3203125 10.875 C-10.32233673 9.92085205 -10.32436096 8.9667041 -10.32644653 7.98364258 C-10.32329437 7.10603271 -10.32014221 6.22842285 -10.31689453 5.32421875 C-10.31609894 4.54780029 -10.31530334 3.77138184 -10.31448364 2.97143555 C-9.98323616 -1.68210995 -3.5198228 0.00260535 0 0 Z M-7.1875 3.1875 C-7.1875 16.0575 -7.1875 28.9275 -7.1875 42.1875 C10.06893105 43.81673656 10.06893105 43.81673656 16.8125 39.1875 C21.01293562 34.98706438 19.99597361 28.89306979 20 23.3125 C20.01836914 21.98412109 20.01836914 21.98412109 20.03710938 20.62890625 C20.04792553 15.79047836 19.8857468 11.666291 17.8125 7.1875 C15.78006452 6.21872943 15.78006452 6.21872943 13.8125 6.1875 C13.8125 5.5275 13.8125 4.8675 13.8125 4.1875 C7.01380732 2.48782683 -0.17956799 3.1875 -7.1875 3.1875 Z " fill="#0F62B5" transform="translate(521.1875,439.8125)"/>
<path d="M0 0 C0.85049423 0.00222061 1.70098846 0.00444122 2.57725525 0.00672913 C4.01863609 0.00684242 4.01863609 0.00684242 5.48913574 0.00695801 C7.05630592 0.01469994 7.05630592 0.01469994 8.65513611 0.02259827 C9.71913132 0.02401321 10.78312653 0.02542816 11.87936401 0.02688599 C15.29293069 0.03250388 18.70643286 0.04505941 22.11997986 0.05775452 C24.42792162 0.06276721 26.73586441 0.06733052 29.04380798 0.07142639 C34.71505412 0.08247912 40.38626238 0.09923465 46.05747986 0.12025452 C46.05747986 0.45025452 46.05747986 0.78025452 46.05747986 1.12025452 C30.87747986 1.12025452 15.69747986 1.12025452 0.05747986 1.12025452 C0.05747986 45.01025452 0.05747986 88.90025452 0.05747986 134.12025452 C6.32747986 134.12025452 12.59747986 134.12025452 19.05747986 134.12025452 C19.05747986 135.11025452 19.05747986 136.10025452 19.05747986 137.12025452 C11.79747986 137.12025452 4.53747986 137.12025452 -2.94252014 137.12025452 C-2.96563839 119.40532938 -2.98349899 101.6904094 -2.99433231 83.97547245 C-2.99949541 75.75069733 -3.00653838 67.52593173 -3.01795959 59.30116272 C-3.02790601 52.13505006 -3.03437347 44.96894429 -3.03660864 37.80282491 C-3.03791582 34.00608462 -3.04100213 30.20936407 -3.0482502 26.41263008 C-3.05500974 22.8430655 -3.05713724 19.27352889 -3.05562782 15.70395851 C-3.0560365 13.76110605 -3.06143204 11.81825668 -3.06694031 9.87541199 C-3.06556564 8.72971237 -3.06419098 7.58401276 -3.06277466 6.40359497 C-3.06369645 5.401606 -3.06461824 4.39961702 -3.06556797 3.36726475 C-2.91052507 0.53598372 -2.82917041 0.17514388 0 0 Z " fill="#025EB5" transform="translate(584.9425201416016,418.87974548339844)"/>
<path d="M0 0 C3.00024947 -0.05444001 5.99949039 -0.0938836 9 -0.125 C9.83917969 -0.14175781 10.67835938 -0.15851563 11.54296875 -0.17578125 C18.21530428 -0.22750478 24.38602492 0.01110592 29.875 4.1875 C34.29902143 10.04282248 34.34044163 16.4251804 34.3125 23.5 C34.33666992 24.72396484 34.33666992 24.72396484 34.36132812 25.97265625 C34.36652798 32.45167312 33.25762138 37.23259315 29.0625 42.375 C24.29774222 46.12905159 17.67793864 45.37237527 11.875 45.625 C10.86050781 45.6765625 9.84601562 45.728125 8.80078125 45.78125 C7.83269531 45.82507813 6.86460937 45.86890625 5.8671875 45.9140625 C4.98144043 45.9548291 4.09569336 45.9955957 3.18310547 46.03759766 C1 46 1 46 -1 45 C-1.02467081 38.91276345 -1.04284604 32.82555583 -1.05493164 26.73828125 C-1.05996852 24.66633599 -1.06679825 22.5943943 -1.07543945 20.52246094 C-1.08753321 17.54881918 -1.09323467 14.57522431 -1.09765625 11.6015625 C-1.10281754 10.67131256 -1.10797882 9.74106262 -1.11329651 8.78262329 C-1.11337204 7.92188202 -1.11344757 7.06114075 -1.11352539 6.17431641 C-1.115746 5.41486725 -1.11796661 4.65541809 -1.12025452 3.87295532 C-1 2 -1 2 0 0 Z M2 3 C2 15.87 2 28.74 2 42 C5.361875 42.061875 8.72375 42.12375 12.1875 42.1875 C13.23832764 42.21481201 14.28915527 42.24212402 15.37182617 42.27026367 C22.27151609 42.44268425 22.27151609 42.44268425 28 39 C31.0594276 33.65602165 31.46674372 29.07547285 31.375 23 C31.38660156 22.23171875 31.39820313 21.4634375 31.41015625 20.671875 C31.38321166 15.39073523 30.45242044 11.68897992 28 7 C21.06549813 0.28919173 11.05427049 3 2 3 Z " fill="#0B60B6" transform="translate(604,440)"/>
<path d="M0 0 C0.33 0 0.66 0 1 0 C1.33 43.89 1.66 87.78 2 133 C6.29 133 10.58 133 15 133 C13.515 133.99 13.515 133.99 12 135 C16.29 135.33 20.58 135.66 25 136 C25 136.33 25 136.66 25 137 C21.20834926 137.0289337 17.41672673 137.04677601 13.625 137.0625 C12.54476562 137.07087891 11.46453125 137.07925781 10.3515625 137.08789062 C9.3203125 137.09111328 8.2890625 137.09433594 7.2265625 137.09765625 C6.27346191 137.10289307 5.32036133 137.10812988 4.33837891 137.11352539 C2 137 2 137 0 136 C0 91.12 0 46.24 0 0 Z " fill="#0F6ABC" transform="translate(674,420)"/>
<path d="M0 0 C0.66 0 1.32 0 2 0 C3.12691228 5.41801968 3.14481736 10.67017787 3.1328125 16.17578125 C3.13424759 17.62442818 3.13424759 17.62442818 3.13571167 19.1023407 C3.1363898 21.13373887 3.1345612 23.16513924 3.13037109 25.1965332 C3.12498841 28.31922191 3.13034342 31.44176869 3.13671875 34.56445312 C3.13605848 36.53906282 3.13477837 38.51367242 3.1328125 40.48828125 C3.13483673 41.42674393 3.13686096 42.3652066 3.13894653 43.33210754 C3.13579437 44.19357895 3.13264221 45.05505035 3.12939453 45.94262695 C3.12859894 46.70396439 3.12780334 47.46530182 3.12698364 48.24971008 C3 50 3 50 2 51 C0.36527118 51.08700342 -1.27314055 51.10701063 -2.91015625 51.09765625 C-3.89951172 51.09443359 -4.88886719 51.09121094 -5.90820312 51.08789062 C-6.94912109 51.07951172 -7.99003906 51.07113281 -9.0625 51.0625 C-10.10728516 51.05798828 -11.15207031 51.05347656 -12.22851562 51.04882812 C-14.8190666 51.03699913 -17.40950559 51.02051689 -20 51 C-20 50.67 -20 50.34 -20 50 C-13.4 50 -6.8 50 0 50 C0 33.5 0 17 0 0 Z " fill="#166CBC" transform="translate(604,506)"/>
<path d="M0 0 C0.99 0 1.98 0 3 0 C2.76953125 1.83203125 2.76953125 1.83203125 2 4 C0.07421875 5.44921875 0.07421875 5.44921875 -2.3125 6.6875 C-3.09238281 7.10386719 -3.87226562 7.52023437 -4.67578125 7.94921875 C-8.82075354 9.8231642 -12.54300616 10.16078943 -17.078125 10.31640625 C-18.23828125 10.35830078 -19.3984375 10.40019531 -20.59375 10.44335938 C-21.8003125 10.48267578 -23.006875 10.52199219 -24.25 10.5625 C-25.47203125 10.60568359 -26.6940625 10.64886719 -27.953125 10.69335938 C-30.9686392 10.79937355 -33.98423448 10.90143936 -37 11 C-37.33 11.99 -37.66 12.98 -38 14 C-38 11.69 -38 9.38 -38 7 C-37.41621582 6.98018066 -36.83243164 6.96036133 -36.23095703 6.93994141 C-33.52859732 6.84337139 -30.82687606 6.73424027 -28.125 6.625 C-27.2071875 6.5940625 -26.289375 6.563125 -25.34375 6.53125 C-16.57926849 6.1609198 -8.37726073 4.54960109 0 2 C0 1.34 0 0.68 0 0 Z " fill="#0E64B7" transform="translate(644,498)"/>
<path d="M0 0 C6.6 0 13.2 0 20 0 C20 0.99 20 1.98 20 3 C10.595 3.495 10.595 3.495 1 4 C0.67 4.99 0.34 5.98 0 7 C0 4.69 0 2.38 0 0 Z " fill="#0B58C4" transform="translate(606,505)"/>
<path d="M0 0 C0.33 0 0.66 0 1 0 C1.09269424 7.44643723 1.10347924 14.87479111 0.6875 22.3125 C0.62949219 23.36050781 0.57148438 24.40851563 0.51171875 25.48828125 C0 28 0 28 -3 30 C-3.20082344 23.20547367 -3.01971589 17.53437495 -1 11 C-0.54638968 7.34120904 -0.25271554 3.67767608 0 0 Z " fill="#0764B6" transform="translate(421,455)"/>
<path d="M0 0 C0.99 0.33 1.98 0.66 3 1 C2.33931317 5.36053305 1.03122838 9.08263098 -1 13 C-3.6875 14.9375 -3.6875 14.9375 -6 16 C-5.25 11.25 -5.25 11.25 -3 9 C-2.3574765 6.93125966 -2.3574765 6.93125966 -2 5 C-1.34 5 -0.68 5 0 5 C0 3.35 0 1.7 0 0 Z " fill="#095FB6" transform="translate(542,468)"/>
<path d="M0 0 C0.99290126 2.97870377 1.05524548 4.59182885 0.87890625 7.66796875 C0.83056641 8.56064453 0.78222656 9.45332031 0.73242188 10.37304688 C0.67634766 11.30181641 0.62027344 12.23058594 0.5625 13.1875 C0.51029297 14.12787109 0.45808594 15.06824219 0.40429688 16.03710938 C0.27468082 18.35841501 0.13971819 20.67928409 0 23 C-0.33 23 -0.66 23 -1 23 C-1.33 15.74 -1.66 8.48 -2 1 C-1.34 0.67 -0.68 0.34 0 0 Z " fill="#1A70BE" transform="translate(542,450)"/>
<path d="M0 0 C-3.465 2.97 -3.465 2.97 -7 6 C-7.66 5.67 -8.32 5.34 -9 5 C-7.93411431 2.09303901 -7.29651501 1.15567038 -4.5 -0.3125 C-2 -1 -2 -1 0 0 Z " fill="#0B60B5" transform="translate(502,310)"/>
<path d="M0 0 C0.66 0 1.32 0 2 0 C2.33 3.3 2.66 6.6 3 10 C2.01 10 1.02 10 0 10 C0 6.7 0 3.4 0 0 Z " fill="#1C66B6" transform="translate(565,465)"/>
<path d="M0 0 C1.875 0.25 1.875 0.25 4 1 C5.3125 2.875 5.3125 2.875 6 5 C5.67 5.99 5.34 6.98 5 8 C5 7.34 5 6.68 5 6 C4.01 6 3.02 6 2 6 C1.34 4.02 0.68 2.04 0 0 Z " fill="#0F5BBA" transform="translate(471,659)"/>
<path d="M0 0 C0.99 0 1.98 0 3 0 C3.26218749 3.14624993 3.24754367 4.61837017 1.5 7.3125 C0.7575 8.1478125 0.7575 8.1478125 0 9 C0 6.03 0 3.06 0 0 Z " fill="#075DB3" transform="translate(762,449)"/>
<path d="M0 0 C0.99 0 1.98 0 3 0 C3 1.98 3 3.96 3 6 C2.01 6 1.02 6 0 6 C0 4.02 0 2.04 0 0 Z " fill="#0F60B4" transform="translate(423,432)"/>
<path d="M0 0 C2 3 2 3 2 5 C1.34 5 0.68 5 0 5 C-0.33 5.66 -0.66 6.32 -1 7 C-1 6.01 -1 5.02 -1 4 C-1.66 4 -2.32 4 -3 4 C-3 3.01 -3 2.02 -3 1 C-2.01 0.67 -1.02 0.34 0 0 Z " fill="#1C69B9" transform="translate(433,553)"/>
<path d="M0 0 C2.4375 0.75 2.4375 0.75 5 2 C5.8125 4.125 5.8125 4.125 6 6 C4.02 5.01 2.04 4.02 0 3 C0 2.01 0 1.02 0 0 Z " fill="#055EB2" transform="translate(688,311)"/>
<path d="" fill="#008080" transform="translate(0,0)"/>
</svg>
